#!OML:ASF E:\Mandelcareful walks\Project 1\Capture day 1\Session 1\Subject1.ASF
:FULLY-SPECIFIED
:DEGREES
658
root 3.39791 16.4206 0.607708 598.397 96.606 595.779
lowerback 22.0667 -1.61255 4.36739
upperback 7.06978 -0.553323 1.5782
thorax -4.62476 -0.0504039 -0.667632
lowerneck -24.3377 8.54551 4.9927
upperneck 28.9743 16.1355 -13.7487
head 16.186 5.6665 -3.1181
rclavicle 2.38542e-015 1.11319e-014
rhumerus -25.7325 3.69592 -84.5162
rradius 55.1306
rwrist -21.6062
rhand -12.2516 -27.6006
rfingers 7.12502
rthumb 13.8145 -57.1219
lclavicle 2.38542e-015 1.11319e-014
lhumerus -27.4369 -13.2851 87.4275
lradius 67.1518
lwrist 20.5575
lhand -29.5655 -19.2487
lfingers 7.12502
lthumb -2.89787 10.7114
rfemur -18.2847 -5.14795 17.1338
rtibia 40.2205
rfoot -23.5718 -1.95093
rtoes 14.0881
lfemur -34.9768 11.0456 -19.5812
ltibia 39.9197
lfoot -7.49374 9.14229
ltoes -9.55161
659
root 3.48327 16.4247 0.600006 593.176 96.8296 590.623
lowerback 21.9476 -1.50655 4.31796
upperback 7.11305 -0.442367 1.54019
thorax -4.51258 0.00426107 -0.709838
lowerneck -24.0971 8.70427 5.1248
upperneck 29.023 16.3699 -13.8133
head 16.2089 5.78172 -3.11984
rclavicle 3.18055e-015 -1.27222e-014
rhumerus -25.7309 3.49177 -84.5057
rradius 54.158
rwrist -21.6791
rhand -12.1154 -27.6439
rfingers 7.12502
rthumb 13.9458 -57.1562
lclavicle 3.18055e-015 -1.27222e-014
lhumerus -27.4734 -12.8603 87.3862
lradius 66.0835
lwrist 20.4797
lhand -29.8822 -19.1601
lfingers 7.12502
lthumb -3.20372 10.7956
rfemur -17.7951 -4.86512 17.2458
rtibia 39.9336
rfoot -23.5361 -1.62887
rtoes 14.3157
lfemur -34.8771 10.2452 -18.8549
ltibia 37.4976
lfoot -5.44855 9.09836
ltoes -10.7437
660
root 3.56821 16.4227 0.591025 588.025 97.1322 585.486
lowerback 21.813 -1.37076 4.16777
upperback 7.16046 -0.310874 1.55975
thorax -4.38676 0.0683177 -0.637713
lowerneck -24.0798 8.80023 5.09919
upperneck 29.1951 16.5672 -13.7959
head 16.3112 5.85649 -3.06687
rclavicle -2.46493e-014 -2.22639e-014
rhumerus -25.772 3.59834 -84.4369
rradius 53.3968
rwrist -21.9366
rhand -11.6888 -29.0368
rfingers 7.12502
rthumb 14.3568 -58.5203
lclavicle -2.46493e-014 -2.22639e-014
lhumerus -27.6215 -12.2681 87.4516
lradius 64.9774
lwrist 20.0064
lhand -30.2389 -19.5768
lfingers 7.12502
lthumb -3.54815 10.3734
rfemur -17.4001 -4.55237 17.3786
rtibia 39.7047
rfoot -23.5103 -1.38032
rtoes 14.4143
lfemur -34.768 9.43114 -18.0568
ltibia 35.2101
lfoot -3.93334 9.11302
ltoes -10.9971
661
root 3.65903 16.4194 0.577855 583.333 97.5064 580.8
lowerback 21.6343 -1.28273 3.9965
upperback 7.25301 -0.248041 1.55474
thorax -4.19301 0.10133 -0.562726
lowerneck -24.0921 8.94692 5.26825
upperneck 29.2418 16.8196 -14.0016
head 16.4216 5.94927 -3.12376
rclavicle 7.95139e-015 1.59028e-015
rhumerus -25.7361 3.77778 -84.4437
rradius 52.6074
rwrist -22.0678
rhand -11.334 -29.8307
rfingers 7.12502
rthumb 14.6987 -59.2896
lclavicle 7.95139e-015 1.59028e-015
lhumerus -27.8641 -11.4667 87.428
lradius 63.9808
lwrist 19.5493
lhand -30.0039 -19.9033
lfingers 7.12502
lthumb -3.32122 10.0506
rfemur -17.0367 -4.31001 17.471
rtibia 39.5292
rfoot -23.4383 -1.09942
rtoes 14.2635
lfemur -34.5831 8.56101 -17.2155
ltibia 33.1351
lfoot -2.84927 9.21785
ltoes -11.0518
662
root 3.75753 16.4163 0.560506 581.059 97.6957 578.658
lowerback 21.4987 -1.31709 4.02688
upperback 7.3755 -0.301085 1.44539
thorax -3.99398 0.0825919 -0.685188
lowerneck -24.1263 9.0285 5.47077
upperneck 29.3243 16.9238 -14.1102
head 16.5233 5.99335 -3.18135
rclavicle -7.95139e-015 0
rhumerus -25.5923 3.49595 -84.4994
rradius 51.5636
rwrist -22.0064
rhand -11.7642 -27.5977
rfingers 7.12502
rthumb 14.2842 -57.0864
lclavicle -7.95139e-015 0
lhumerus -28.1261 -10.9822 87.3445
lradius 63.0663
lwrist 19.4286
lhand -29.6274 -19.7623
lfingers 7.12502
lthumb -2.95762 10.1969
rfemur -16.4861 -4.39094 17.4355
rtibia 39.4128
rfoot -23.4689 -0.782425
rtoes 14.2789
lfemur -34.2471 7.44864 -16.4802
ltibia 31.3057
lfoot -1.78903 9.28784
ltoes -12.7781
663
root 3.85456 16.4096 0.534213 575.799 98.3992 573.469
lowerback 21.5476 -1.11594 4.03316
upperback 7.36753 -0.0507856 1.35119
thorax -4.01718 0.201951 -0.850422
lowerneck -23.8669 9.01035 5.36275
upperneck 29.4335 16.9196 -13.9686
head 16.4829 6.00861 -3.11516
rclavicle -3.18055e-015 3.18055e-015
rhumerus -25.6625 3.22365 -84.4776
rradius 50.5833
rwrist -21.9197
rhand -10.953 -29.2673
rfingers 7.12502
rthumb 15.0657 -58.6991
lclavicle -3.18055e-015 3.18055e-015
lhumerus -28.5534 -10.4781 87.4409
lradius 62.0113
lwrist 19.4123
lhand -29.2779 -19.5188
lfingers 7.12502
lthumb -2.62013 10.4449
rfemur -16.1654 -4.03253 17.4218
rtibia 39.3378
rfoot -23.3501 -0.261501
rtoes 14.2994
lfemur -33.8606 6.80612 -15.6343
ltibia 29.7482
lfoot -1.04449 9.857
ltoes -14.8807
